<svg width="103" height="34" viewBox="0 0 103 34" fill="none" xmlns="http://www.w3.org/2000/svg">
<path fill-rule="evenodd" clip-rule="evenodd" d="M1 0.349713V17.136H4.1476V7.79863C4.1476 6.35318 4.43374 5.2923 5.00603 4.61623C5.57832 3.94015 6.30322 3.60206 7.18074 3.60206C7.58134 3.60206 7.93425 3.672 8.23947 3.81189C8.5447 3.95177 8.8213 4.18495 9.0693 4.51131L11.1295 1.92343C10.6526 1.24735 10.1375 0.757754 9.58436 0.454627C9.03115 0.151499 8.41116 0 7.72441 0C6.16015 0 4.98695 0.664458 4.20483 1.99337C4.18551 2.02643 4.16643 2.05975 4.1476 2.09333V0.349713H1ZM14.8946 16.3666C16.0011 17.1126 17.241 17.4857 18.6145 17.4857C19.6827 17.4857 20.6938 17.2409 21.6476 16.7513C22.6014 16.2617 23.4122 15.5389 24.0799 14.5831L22.0768 12.1001C21.6571 12.683 21.1421 13.1259 20.5317 13.429C19.9403 13.7322 19.2917 13.8837 18.5859 13.8837C17.7656 13.8837 17.0407 13.6738 16.4112 13.2542C15.7817 12.8112 15.2952 12.1934 14.9518 11.4007C14.7878 11.0219 14.6629 10.6139 14.5772 10.1767H24.8238C24.8811 9.82697 24.9192 9.51223 24.9383 9.23246C24.9764 8.92933 24.9955 8.63794 24.9955 8.35817C24.9955 6.74949 24.7094 5.31566 24.1371 4.05669C23.5839 2.79772 22.8113 1.8069 21.8193 1.08411C20.8464 0.36133 19.721 0 18.4428 0C17.1265 0 15.9247 0.384685 14.8374 1.15406C13.7691 1.92343 12.9202 2.97257 12.2907 4.30149C11.6612 5.60704 11.3464 7.08758 11.3464 8.74286C11.3464 10.3981 11.6612 11.8903 12.2907 13.2192C12.9393 14.5481 13.8072 15.5973 14.8946 16.3666ZM14.587 7.02926C14.6671 6.63797 14.7791 6.27659 14.9232 5.94515C15.2475 5.17577 15.7053 4.58126 16.2967 4.1616C16.8881 3.74194 17.5844 3.53211 18.3856 3.53211C19.1487 3.53211 19.7877 3.71859 20.3027 4.09166C20.8369 4.46473 21.247 5.00091 21.5332 5.70034C21.6934 6.09211 21.8148 6.53509 21.8973 7.02926H14.587ZM29.8079 17.136C30.5137 17.3692 31.2482 17.4857 32.0112 17.4857C33.6136 17.4857 34.8823 17.0077 35.8169 16.0519C36.7517 15.096 37.219 13.8021 37.219 12.1701C37.219 11.1443 37.0474 10.3166 36.704 9.68709C36.3606 9.03424 35.9124 8.52142 35.3591 8.14835C34.825 7.75204 34.2527 7.44892 33.6422 7.23909C33.0509 7.0059 32.4786 6.79607 31.9254 6.6096C31.3913 6.42313 30.9525 6.20156 30.6091 5.94515C30.2657 5.68873 30.094 5.32727 30.094 4.86103C30.094 4.41802 30.2657 4.08004 30.6091 3.84686C30.9525 3.61367 31.4389 3.49714 32.0684 3.49714C32.7362 3.49714 33.3275 3.64865 33.8425 3.95177C34.3576 4.2549 34.8154 4.70953 35.216 5.31566L37.219 2.86766C36.6467 1.91181 35.9314 1.20064 35.073 0.734399C34.2336 0.244799 33.2607 0 32.1543 0C31.1051 0 30.199 0.209828 29.4359 0.629485C28.6919 1.04914 28.1101 1.64366 27.6904 2.41303C27.2898 3.1824 27.0895 4.10327 27.0895 5.17577C27.0895 6.17833 27.2612 6.99429 27.6046 7.62377C27.9479 8.25326 28.3868 8.75447 28.9208 9.12754C29.4741 9.47726 30.0464 9.75703 30.6377 9.96686C31.2482 10.1767 31.8205 10.3865 32.3546 10.5963C32.9079 10.7828 33.3561 11.016 33.6995 11.2958C34.0428 11.5755 34.2145 11.9718 34.2145 12.4848C34.2145 12.9744 34.0333 13.3475 33.6708 13.6039C33.3085 13.8603 32.7743 13.9886 32.0684 13.9886C31.2863 13.9886 30.5805 13.8253 29.951 13.499C29.3405 13.1493 28.7969 12.6363 28.3199 11.9602L26.3169 14.4082C26.7557 15.0611 27.2708 15.6206 27.8621 16.0869C28.4535 16.5299 29.1021 16.8796 29.8079 17.136ZM42.3322 16.5415C43.2478 17.171 44.2874 17.4857 45.4511 17.4857C46.6338 17.4857 47.6735 17.1826 48.5701 16.5765C49.4667 15.947 50.1629 15.0843 50.659 13.9886C51.174 12.8695 51.4316 11.5755 51.4316 10.1067V0.349713H48.284V9.93189C48.284 11.1675 48.0359 12.1235 47.54 12.7995C47.0631 13.4524 46.3668 13.7787 45.4511 13.7787C44.8597 13.7787 44.3447 13.6272 43.906 13.3241C43.4862 13.021 43.162 12.5897 42.9331 12.0302C42.7232 11.4473 42.6183 10.7478 42.6183 9.93189V0.349713H39.4707V10.1067C39.4707 11.5522 39.7186 12.8345 40.2147 13.9536C40.7297 15.0493 41.4355 15.912 42.3322 16.5415ZM54.5963 0.349713V17.136H57.7439V7.13417C57.7439 6.38816 57.8775 5.75867 58.1445 5.24572C58.4116 4.70953 58.7646 4.30149 59.2033 4.02172C59.6611 3.74194 60.1762 3.60206 60.7485 3.60206C61.5878 3.60206 62.2936 3.9168 62.8659 4.54628C63.4382 5.15241 63.7244 6.01509 63.7244 7.13417V17.136H66.872V7.13417C66.872 6.38816 67.0055 5.75867 67.2726 5.24572C67.5396 4.70953 67.9021 4.30149 68.3599 4.02172C68.8178 3.74194 69.3233 3.60206 69.8765 3.60206C70.7158 3.60206 71.4217 3.9168 71.994 4.54628C72.5663 5.15241 72.8524 6.01509 72.8524 7.13417V17.136H76V6.29486C76 4.9893 75.7616 3.87021 75.2846 2.9376C74.8077 2.00499 74.1687 1.28233 73.3675 0.76937C72.5663 0.256415 71.6697 0 70.6777 0C69.7048 0 68.8083 0.268155 67.9879 0.804342C67.2379 1.28456 66.6132 1.94856 66.1139 2.79656C65.6637 1.93182 65.0675 1.25617 64.3253 0.76937C63.5432 0.256415 62.6656 0 61.6927 0C60.7198 0 59.8423 0.268155 59.0602 0.804342C58.5534 1.13676 58.1146 1.55725 57.7439 2.06587V0.349713H54.5963Z" fill="#020618"/>
<path d="M83.1 2.21486H81V0.971428H88V2.21486H85.55M83.1 2.21486V15.2709M83.1 2.21486H84.325M83.1 15.2709H81V16.5143H88V15.2709H85.55M83.1 15.2709H84.5M85.55 15.2709V2.21486M85.55 15.2709H84.5M85.55 2.21486H84.325M84.325 2.21486L84.5 15.2709" stroke="#9810FA"/>
<path d="M81.5 1.45715H87.5" stroke="#9810FA"/>
<path d="M83.5 2.91429L84 2.42857" stroke="#9810FA"/>
<path d="M83.5 14.5714L84 15.0571" stroke="#9810FA"/>
<path d="M87.5 16.0286H81" stroke="#9810FA"/>
<path d="M85 3.41428V14.0714C85 14.3476 84.7761 14.5714 84.5 14.5714C84.2239 14.5714 84 14.3476 84 14.0714V3.41428C84 3.13814 84.2239 2.91428 84.5 2.91428C84.7761 2.91428 85 3.13814 85 3.41428Z" stroke="#9810FA"/>
<path d="M103 8.74286C103 13.5714 100.09 17.4857 96.5 17.4857C92.9101 17.4857 90 13.5714 90 8.74286C90 3.91431 92.9101 0 96.5 0C100.09 0 103 3.91431 103 8.74286ZM92.4738 8.74286C92.4738 11.7337 94.2764 14.1583 96.5 14.1583C98.7236 14.1583 100.526 11.7337 100.526 8.74286C100.526 5.75197 98.7236 3.32737 96.5 3.32737C94.2764 3.32737 92.4738 5.75197 92.4738 8.74286Z" fill="#9810FA"/>
</svg>
